<svg width="157" height="32" viewBox="0 0 157 32" fill="none" xmlns="http://www.w3.org/2000/svg">
<path d="M21.7901 21.3695C19.4752 24.5426 16.9087 27.5205 11.6751 27.5205C4.68009 27.5205 0 22.9805 0 16.1948C0 9.36032 4.68009 4.625 11.7254 4.625C15.55 4.625 19.0223 5.74781 20.7333 7.99342C22.1927 9.94613 20.7333 12.1917 19.1733 12.1917C18.4687 12.1917 17.7139 11.7524 17.2106 10.6784C15.55 7.35879 14.4428 5.30845 11.6751 5.30845C7.80015 5.30845 4.78073 9.75086 5.18332 16.146C5.53559 21.5159 9.05823 24.7379 13.2854 24.8843C16.0532 24.982 19.2739 24.0056 21.3372 21.0277L21.7901 21.3695Z" fill="#0E0E0E"/>
<path d="M22.6953 5.79667L29.9419 4.82031V10.7273C31.9548 7.50529 34.5213 4.82031 38.6479 4.82031C40.4092 4.82031 41.7679 5.0644 42.9254 6.33366C44.6364 8.23755 42.9757 10.4832 41.0131 10.4832C40.2079 10.4832 39.4027 10.0926 38.6982 9.21391C38.2453 8.53046 37.3898 7.31002 35.3768 7.40765C33.1626 7.50529 31.3006 9.94617 29.9922 12.68V22.5411C29.9922 24.7868 30.5458 25.6655 31.9548 27.13V27.5205H23.1482V27.13C24.6579 25.6655 25.0102 24.7868 25.0102 22.5411V10.7761C25.0102 8.53046 24.4566 7.45647 22.6953 6.18721V5.79667Z" fill="#0E0E0E"/>
<path d="M48.412 14.2421C48.3616 14.8768 48.3113 15.5114 48.3113 16.1948C48.3113 21.5648 52.1862 24.7868 56.4134 24.9332C59.1812 25.0308 62.4019 24.0545 64.4652 21.0766L64.8677 21.4183C62.5529 24.5915 59.9864 27.5694 54.7527 27.5694C47.7074 27.5694 43.0273 23.0293 43.0273 16.1948C43.0273 9.36036 47.7074 4.82031 54.7527 4.82031C59.9864 4.82031 64.5658 8.62809 64.5658 14.2421H48.412ZM59.4328 13.1681C59.8354 9.89735 58.2754 5.55258 54.803 5.55258C51.532 5.55258 49.1668 8.33519 48.5126 13.1681H59.4328Z" fill="#0E0E0E"/>
<path d="M77.6004 4.82031C84.6457 4.82031 89.3258 9.36036 89.3258 16.1948C89.3258 23.0293 84.6457 27.5694 77.6004 27.5694C70.5551 27.5694 65.875 23.0293 65.875 16.1948C65.875 9.36036 70.5551 4.82031 77.6004 4.82031ZM71.5616 25.0797C74.7823 27.13 79.3617 24.982 82.985 19.6609C86.6083 14.3398 86.8599 9.40918 83.5889 7.31002C80.3179 5.21085 75.7384 7.40765 72.1151 12.7288C68.5422 18.0499 68.2905 22.9805 71.5616 25.0797Z" fill="#0E0E0E"/>
<path d="M105.391 23.8683H105.825L105.247 25.5156C104.922 26.3567 104.56 26.9525 104.055 27.303C103.549 27.6534 103.079 27.8637 102.573 27.8637C102.284 27.8637 102.031 27.7936 101.815 27.7235C101.598 27.6184 101.417 27.4782 101.309 27.303C101.164 27.0927 101.092 26.8123 101.092 26.5319C101.092 26.2165 101.128 25.866 101.237 25.4805C101.345 25.095 101.417 24.8496 101.453 24.7445L101.887 23.1323C101.128 24.8146 100.406 26.0413 99.6108 26.7773C98.8521 27.5483 98.0573 27.8988 97.2263 27.8988C96.5037 27.8988 95.9618 27.6534 95.6005 27.1628C95.2392 26.6721 95.0586 26.0062 95.0586 25.2001C95.0586 23.9735 95.3838 22.6417 96.0702 21.1346C96.7205 19.6276 97.5876 18.3659 98.6714 17.3144C99.7553 16.263 100.803 15.7373 101.923 15.7373C102.357 15.7373 102.682 15.8775 102.935 16.1929C103.188 16.5083 103.368 16.9289 103.404 17.4546L103.766 16.0527C104.633 16.0177 105.319 15.9125 105.897 15.7373L103.007 25.6908C103.007 25.7609 102.971 25.866 102.898 26.0413C102.862 26.2165 102.826 26.3917 102.826 26.5319C102.826 26.9175 103.007 27.0927 103.332 27.0927C104.018 27.0927 104.597 26.3216 105.102 24.8146L105.391 23.8683ZM99.4302 26.1815C100.044 25.5506 100.622 24.6744 101.2 23.623C101.779 22.5365 102.248 21.415 102.609 20.1883L103.043 18.5762C103.043 18.471 103.079 18.2958 103.079 18.0855C103.079 17.4546 102.971 16.999 102.754 16.6485C102.537 16.2981 102.212 16.1228 101.815 16.1228C101.164 16.1228 100.442 16.6135 99.7192 17.6299C98.9605 18.6112 98.3463 19.8729 97.8405 21.3099C97.3347 22.7818 97.0818 24.1487 97.0818 25.4455C97.0818 26.0763 97.154 26.4969 97.2986 26.7773C97.4431 27.0576 97.6237 27.1978 97.9127 27.1978C98.3102 27.1277 98.8521 26.8123 99.4302 26.1815Z" fill="#0E0E0E"/>
<path d="M117.061 15.0714C117.314 15.2817 117.422 15.6322 117.422 16.0878C117.422 16.4733 117.314 16.7887 117.133 16.999C116.916 17.2093 116.7 17.3144 116.411 17.3144C116.122 17.3144 115.869 17.2093 115.616 17.0341C115.399 16.8238 115.291 16.5434 115.291 16.1929C115.291 15.9125 115.363 15.5971 115.507 15.2466C114.893 15.492 114.46 15.8074 114.171 16.1929C114.821 16.6135 115.146 17.3144 115.146 18.2257C115.146 18.8916 114.965 19.5224 114.64 20.1533C114.315 20.7841 113.845 21.3098 113.231 21.8005C112.617 22.2561 111.931 22.5716 111.1 22.7117L110.341 23.1323C109.618 23.5178 109.077 23.7982 108.751 24.0436C108.426 24.2538 108.246 24.4992 108.246 24.7095C108.246 24.8847 108.354 25.0249 108.571 25.13C108.787 25.2352 109.149 25.3754 109.655 25.4805L111.353 25.9011C112.22 26.1114 112.906 26.3567 113.34 26.6371C113.773 26.9174 113.99 27.303 113.99 27.8637C113.99 28.4245 113.737 29.0553 113.267 29.6862C112.798 30.3171 112.039 30.8778 111.027 31.3334C110.016 31.789 108.751 31.9993 107.27 31.9993C106.078 31.9993 105.175 31.8591 104.56 31.5437C103.946 31.2283 103.621 30.8428 103.621 30.3171C103.621 29.7913 103.91 29.3007 104.488 28.775C105.066 28.2493 105.861 27.8637 106.909 27.5483L107.053 27.8988C106.042 28.4245 105.536 29.0904 105.536 29.9315C105.536 30.4923 105.753 30.9129 106.15 31.1932C106.548 31.4736 107.089 31.6138 107.776 31.6138C108.462 31.6138 109.149 31.4736 109.871 31.1932C110.594 30.9129 111.208 30.5624 111.678 30.1418C112.147 29.6862 112.4 29.2306 112.4 28.775C112.4 28.5647 112.328 28.4245 112.22 28.3544C112.111 28.2843 111.858 28.2142 111.461 28.1091L107.92 27.2329C107.089 27.0226 106.656 26.567 106.656 25.866C106.656 25.4104 106.909 24.9548 107.415 24.4992C107.92 24.0436 108.86 23.4828 110.269 22.8519H110.124C109.221 22.8519 108.498 22.6417 107.957 22.2211C107.415 21.8005 107.126 21.2047 107.126 20.3986C107.126 19.7678 107.306 19.1019 107.631 18.3659C107.957 17.6299 108.535 17.0341 109.293 16.5083C110.052 15.9826 111.027 15.7373 112.184 15.7373C112.834 15.7373 113.412 15.8424 113.845 16.0177C114.135 15.6672 114.496 15.3518 114.929 15.1415C115.363 14.9312 115.76 14.791 116.194 14.791C116.627 14.791 116.808 14.8611 117.061 15.0714ZM112.003 21.5552C112.436 21.0295 112.689 20.3986 112.87 19.6977C113.015 18.9967 113.087 18.3308 113.087 17.735C113.087 17.1742 113.015 16.7537 112.87 16.4733C112.725 16.1929 112.436 16.0527 112.003 16.0527C111.244 16.0527 110.666 16.3682 110.233 16.999C109.799 17.6299 109.474 18.3308 109.329 19.1019C109.185 19.8729 109.077 20.5038 109.077 20.9594C109.077 21.8706 109.474 22.3262 110.305 22.3262C111.027 22.3613 111.569 22.0809 112.003 21.5552Z" fill="#0E0E0E"/>
<path d="M122.59 20.3284C121.181 21.2397 119.591 21.9756 117.749 22.5715C117.568 23.3075 117.496 24.0434 117.496 24.7444C117.496 26.1813 118.038 26.9173 119.085 26.9173C120.422 26.9173 121.614 26.1813 122.662 24.6743L123.024 24.8495C122.518 25.6907 121.867 26.3916 121 26.9874C120.133 27.5832 119.266 27.8636 118.363 27.8636C117.387 27.8636 116.665 27.5832 116.123 27.0575C115.581 26.5318 115.328 25.7257 115.328 24.7094C115.328 23.5528 115.689 22.2911 116.376 20.8541C117.062 19.4172 118.002 18.1905 119.158 17.2092C120.35 16.1928 121.614 15.7021 122.987 15.7021C123.493 15.7021 123.891 15.8423 124.216 16.0877C124.541 16.333 124.685 16.7185 124.685 17.1741C124.685 18.3658 123.999 19.4172 122.59 20.3284ZM120.82 16.9288C120.205 17.4896 119.627 18.2256 119.122 19.1718C118.58 20.1181 118.182 21.0995 117.893 22.1509C119.375 21.6602 120.422 21.1696 121.036 20.7139C121.614 20.2934 122.048 19.7677 122.373 19.1368C122.698 18.5059 122.843 17.84 122.843 17.1391C122.843 16.7185 122.807 16.4732 122.734 16.333C122.662 16.1928 122.59 16.1227 122.445 16.1227C121.976 16.0877 121.434 16.3681 120.82 16.9288Z" fill="#0E0E0E"/>
<path d="M136.136 23.9033L135.558 25.5505C135.016 27.0926 134.077 27.8636 132.74 27.8636C132.054 27.8636 131.548 27.6533 131.295 27.1977C131.187 27.0225 131.114 26.7772 131.114 26.4617C131.114 26.0412 131.259 25.4804 131.512 24.7094L133.716 18.2606C133.86 17.7699 133.932 17.3844 133.932 17.1741C133.932 16.6484 133.68 16.4031 133.174 16.4031C132.596 16.4031 131.909 16.8237 131.151 17.6648C130.392 18.5059 129.669 19.6275 128.947 21.0995C128.224 22.5715 127.61 24.1836 127.068 25.936L126.635 27.5832H124.611L127.393 17.9452C127.502 17.5597 127.538 17.2793 127.538 17.104C127.538 16.7185 127.357 16.5433 127.032 16.5433C126.707 16.5433 126.382 16.7185 126.129 17.034C125.876 17.3494 125.587 17.9802 125.262 18.8214L124.973 19.6625H124.539L125.117 18.0153C125.659 16.4732 126.598 15.7021 127.863 15.7021C128.369 15.7021 128.694 15.8073 128.911 16.0526C129.127 16.298 129.236 16.6134 129.236 17.034C129.236 17.4545 129.127 18.0503 128.911 18.8564L128.116 21.9406C129.091 19.6625 130.067 18.0854 130.97 17.1391C131.873 16.1928 132.885 15.7372 133.932 15.7372C135.197 15.7372 135.811 16.298 135.811 17.4195C135.811 17.9101 135.703 18.4709 135.45 19.1368L133.21 25.6907C133.102 26.0412 133.029 26.3215 133.029 26.5318C133.029 26.8823 133.21 27.0575 133.571 27.0575C133.896 27.0575 134.185 26.8823 134.474 26.5669C134.763 26.2164 135.052 25.6206 135.378 24.7794L135.667 23.9383H136.136V23.9033Z" fill="#0E0E0E"/>
<path d="M141.304 17.3142C140.545 18.1203 139.895 19.2068 139.425 20.5386C138.956 21.8704 138.703 23.2723 138.703 24.7443C138.703 25.4803 138.847 26.006 139.136 26.3915C139.425 26.742 139.823 26.9172 140.329 26.9172C141.593 26.9172 142.749 26.1812 143.797 24.6742L144.267 24.8494C143.761 25.6906 143.111 26.3915 142.243 26.9873C141.413 27.5831 140.509 27.8635 139.606 27.8635C138.667 27.8635 137.908 27.5831 137.366 27.0224C136.824 26.4616 136.535 25.6555 136.535 24.5691C136.535 23.3424 136.824 22.0456 137.402 20.6437C137.98 19.2418 138.811 18.0853 139.895 17.1039C140.979 16.1577 142.171 15.667 143.544 15.667C144.267 15.667 144.845 15.8422 145.314 16.1927C145.784 16.5432 146.037 16.9988 146.037 17.5946C146.037 18.0502 145.892 18.4708 145.567 18.8563C145.242 19.2068 144.881 19.4171 144.375 19.4171C144.05 19.4171 143.833 19.347 143.652 19.1717C143.508 18.9965 143.4 18.7862 143.4 18.5409C143.4 18.1203 143.58 17.7698 143.905 17.4544C144.231 17.139 144.664 16.9637 145.134 16.8586C144.809 16.403 144.267 16.1577 143.544 16.1577C142.858 16.1226 142.063 16.5081 141.304 17.3142Z" fill="#0E0E0E"/>
<path d="M156.55 17.4901C156.55 18.927 156.081 20.5742 155.177 22.4318C154.274 24.2893 153.19 25.9715 151.962 27.4786C150.517 29.231 148.999 30.4576 147.41 31.2287C146.579 31.6142 145.929 31.7894 145.387 31.7894C145.061 31.7894 144.772 31.7193 144.556 31.5441C144.339 31.3689 144.23 31.1586 144.23 30.8782C144.23 30.5628 144.339 30.3174 144.592 30.1422C144.845 29.967 145.134 29.8618 145.459 29.8618C145.784 29.8618 146.109 29.9319 146.398 30.1072C146.687 30.2824 147.012 30.4927 147.374 30.738C148.566 30.1072 149.722 29.1959 150.842 28.0394L149.108 17.9457C149.036 17.4901 148.927 17.1746 148.819 16.9643C148.71 16.7891 148.566 16.684 148.349 16.684C148.132 16.684 147.952 16.8242 147.735 17.1396C147.518 17.42 147.265 17.9807 146.976 18.7868L146.687 19.628H146.254L146.832 17.9807C147.374 16.4386 148.277 15.7026 149.505 15.7026C150.011 15.7026 150.372 15.8428 150.625 16.1582C150.878 16.4737 151.059 16.9994 151.167 17.7704L152.359 26.2169C153.226 25.0603 153.949 23.8687 154.563 22.642C155.177 21.3803 155.611 20.1537 155.864 18.927C155.394 18.6817 154.997 18.4013 154.635 18.0508C154.274 17.7003 154.094 17.3148 154.094 16.8592C154.094 16.5087 154.202 16.2283 154.419 16.0181C154.635 15.8078 154.925 15.7026 155.25 15.7026C156.117 15.6676 156.55 16.2634 156.55 17.4901Z" fill="#0E0E0E"/>
<path d="M91.0934 6.50267C89.2034 6.50267 87.7812 5.05244 87.7812 3.25601C87.7812 1.45024 89.2034 0 91.0934 0C92.9927 0 94.4149 1.45024 94.4149 3.25601C94.4149 5.05244 92.9927 6.50267 91.0934 6.50267ZM91.0934 5.97871C92.6933 5.97871 93.8067 4.76239 93.8067 3.25601C93.8067 1.74028 92.6933 0.523956 91.0934 0.523956C89.5028 0.523956 88.3894 1.74028 88.3894 3.25601C88.3894 4.76239 89.5028 5.97871 91.0934 5.97871ZM91.8045 4.90273L91.0279 3.70512H90.5133V4.90273H89.8958V1.60929H91.1683C91.9542 1.60929 92.4314 1.98355 92.4314 2.65721C92.4314 3.14374 92.1132 3.48992 91.6641 3.62091L92.5436 4.90273H91.8045ZM91.1308 2.11454H90.5133V3.19988H91.1308C91.5893 3.19988 91.8232 3.00339 91.8232 2.65721C91.8232 2.32038 91.5893 2.11454 91.1308 2.11454Z" fill="#0E0E0E"/>
</svg>